HIERARCHY
ROOT Hips
{
	OFFSET -0.179506 -22.333345 2.821913
	CHANNELS 6 Xposition Yposition Zposition Zrotation Yrotation Xrotation 
	JOINT LeftUpLeg
	{
		OFFSET 6.951974 -9.140623 -0.681533
		CHANNELS 3 Zrotation Yrotation Xrotation
		JOINT LeftLeg
		{
			OFFSET 3.427654 -37.519855 -0.449580
			CHANNELS 3 Zrotation Yrotation Xrotation
			JOINT LeftFoot
			{
				OFFSET -1.359570 -39.796059 -4.369333
				CHANNELS 3 Zrotation Yrotation Xrotation
				JOINT LeftToe
				{
					OFFSET 2.635814 -5.579078 11.928840
					CHANNELS 3 Zrotation Yrotation Xrotation
					End Site
					{
						OFFSET 0.000000 0.000000 0.000000
					}
				}
			}
		}
	}
	JOINT RightUpLeg
	{
		OFFSET -6.767048 -9.052170 -0.431982
		CHANNELS 3 Zrotation Yrotation Xrotation
		JOINT RightLeg
		{
			OFFSET -3.829005 -38.256897 -0.885003
			CHANNELS 3 Zrotation Yrotation Xrotation
			JOINT RightFoot
			{
				OFFSET 1.577377 -39.841461 -4.231180
				CHANNELS 3 Zrotation Yrotation Xrotation
				JOINT RightToe
				{
					OFFSET -2.537174 -4.814398 12.334795
					CHANNELS 3 Zrotation Yrotation Xrotation
					End Site
					{
						OFFSET 0.000000 0.000000 0.000000
					}
				}
			}
		}
	}
	JOINT Spine
	{
		OFFSET -0.253288 10.896323 -2.669631
		CHANNELS 3 Zrotation Yrotation Xrotation
		JOINT Spine1
		{
			OFFSET 0.548704 13.518043 0.109247
			CHANNELS 3 Zrotation Yrotation Xrotation
			JOINT Spine2
			{
				OFFSET 0.145701 5.292222 2.542457
				CHANNELS 3 Zrotation Yrotation Xrotation
				JOINT Neck
				{
					OFFSET -0.277840 21.387037 -4.285703
					CHANNELS 3 Zrotation Yrotation Xrotation
					JOINT Head
					{
						OFFSET 0.515184 6.496960 5.134897
						CHANNELS 3 Zrotation Yrotation Xrotation
						End Site
						{
							OFFSET 0.000000 0.000000 0.000000
						}
					}
				}
				JOINT LeftShoulder
				{
					OFFSET 7.884473 12.174932 -3.408961
					CHANNELS 3 Zrotation Yrotation Xrotation
					JOINT LeftArm
					{
						OFFSET 9.097692 3.046888 -0.886815
						CHANNELS 3 Zrotation Yrotation Xrotation
						JOINT LeftForeArm
						{
							OFFSET 25.961220 -1.277207 -2.745643
							CHANNELS 3 Zrotation Yrotation Xrotation
							JOINT LeftHand
							{
								OFFSET 24.923361 0.898606 -0.117091
								CHANNELS 3 Zrotation Yrotation Xrotation
								End Site
								{
									OFFSET 0.000000 0.000000 0.000000
								}
							}
						}
					}
				}
				JOINT RightShoulder
				{
					OFFSET -8.175920 11.883285 -3.861528
					CHANNELS 3 Zrotation Yrotation Xrotation
					JOINT RightArm
					{
						OFFSET -9.601238 3.255117 -0.914307
						CHANNELS 3 Zrotation Yrotation Xrotation
						JOINT RightForeArm
						{
							OFFSET -25.374195 -1.332924 -2.140099
							CHANNELS 3 Zrotation Yrotation Xrotation
							JOINT RightHand
							{
								OFFSET -25.529810 0.777228 -0.555919
								CHANNELS 3 Zrotation Yrotation Xrotation
								End Site
								{
									OFFSET 0.000000 0.000000 0.000000
								}
							}
						}
					}
				}
			}
		}
	}
}
MOTION
Frames: 9
Frame Time: 0.033333
12.396628 14.809692 90.717934 -119.015041 1.152843 86.201148 13.811822 4.879180 -6.922446 -7.166608 -6.275426 19.803891 1.425771 9.828468 -21.725665 nan nan nan -15.765966 -14.276163 -5.420123 3.118631 -14.079977 14.739149 2.983167 -11.129969 -9.289494 nan nan nan -8.021906 4.328812 0.597244 8.718177 -6.737026 17.921569 2.122643 -0.460095 -7.495366 4.332635 -16.129395 11.319586 5.890976 -18.958788 10.782470 -18.772705 -8.712551 7.573732 -61.203666 -41.027099 34.818737 -133.875036 -76.731491 165.346068 11.611236 -14.619181 5.614422 24.398435 4.762267 2.190898 55.511455 6.516081 7.869627 -53.179286 53.705582 -43.936371 -13.036156 5.001566 -26.125917 
12.376143 14.779480 90.712364 -118.848647 1.216663 86.062391 13.920840 4.431141 -6.692825 -7.175928 -6.071801 19.633863 1.510324 9.753396 -21.671544 nan nan nan -15.879763 -14.383730 -5.037202 3.153994 -14.468628 14.588616 3.136808 -10.795301 -9.141674 nan nan nan -7.966639 4.338121 1.065665 8.621772 -6.752326 17.389602 2.301208 -0.393687 -7.357342 4.464690 -16.326326 11.627460 5.857543 -18.847388 10.372449 -18.364021 -8.943326 7.844315 -62.605193 -40.538515 34.747427 -140.802523 -77.140154 171.716223 4.587730 -14.831022 6.714924 24.220766 4.528313 2.790679 53.893373 5.274707 7.320513 -52.429859 52.908247 -35.431310 -2.589291 5.958256 -13.864088 
12.385024 14.785583 90.703773 -118.867373 1.197494 86.005561 13.932715 4.392845 -6.575198 -7.194524 -6.045807 19.549535 1.552672 9.763689 -21.613833 nan nan nan -15.918124 -14.345243 -4.981397 3.130331 -14.520894 14.624051 3.160589 -10.844596 -9.155467 nan nan nan -7.971624 4.333786 1.172175 8.588707 -6.741438 17.273940 2.297976 -0.382825 -7.259002 4.453291 -16.317280 11.688973 5.907219 -18.799553 10.261551 -18.238273 -8.953990 7.826857 -62.778666 -40.509559 34.764180 -142.309743 -77.182810 172.967921 3.567587 -14.700934 6.192256 24.172368 4.544134 2.799319 53.862705 5.288780 7.361100 -52.792157 52.809328 -34.987626 -1.207613 5.634984 -13.028388 
12.394199 14.793809 90.704391 -118.875079 1.186293 86.000881 13.928449 4.405735 -6.583224 -7.195064 -6.053177 19.570238 1.558325 9.759909 -21.604986 nan nan nan -15.934665 -14.337487 -5.011552 3.131911 -14.540296 14.681053 3.174163 -10.842560 -9.170303 nan nan nan -7.984208 4.341891 1.153073 8.584190 -6.737336 17.330860 2.285118 -0.389467 -7.294829 4.474707 -16.282076 11.699274 5.931684 -18.852096 10.228252 -18.221126 -8.960166 7.826592 -62.647462 -40.538556 34.730454 -141.869081 -77.157206 172.673001 3.774796 -14.823213 6.281160 24.194216 4.566127 2.803679 53.899191 5.268833 7.375587 -52.958021 52.783931 -35.119697 -1.544580 5.716204 -13.144730 
12.397967 14.826101 90.692642 -118.833788 1.134053 85.935055 13.909223 4.374527 -6.519791 -7.179052 -5.985759 19.613199 1.597773 9.616076 -21.556877 nan nan nan -16.034422 -14.328329 -4.852536 3.164489 -14.613605 14.645484 3.192536 -10.648612 -9.176394 nan nan nan -8.057602 4.341559 1.113795 8.661634 -6.699828 17.517367 2.205272 -0.308397 -7.379509 4.409171 -16.270662 11.769897 5.945990 -19.055771 10.186402 -17.744343 -8.412808 7.854190 -63.375604 -41.104609 35.567841 -142.116142 -77.493628 172.372723 3.608786 -14.930339 5.169953 23.976099 4.201529 2.863890 54.306943 5.621249 7.697046 -52.964799 52.550646 -35.388254 -2.037984 5.898051 -13.717846 
12.437778 14.956759 90.829079 -118.249272 1.886902 86.878419 14.736900 4.361589 -7.886653 -7.194340 -5.954667 19.966156 1.589504 8.983792 -21.228505 nan nan nan -14.759306 -13.898426 -5.286157 3.086001 -15.511480 13.838768 2.483826 -10.861547 -9.135226 nan nan nan -8.282220 4.692662 0.823304 9.655205 -6.988912 17.197518 3.003992 -0.327634 -9.022029 2.950582 -16.934382 13.701558 6.966535 -18.775686 9.083147 -18.516984 -8.362373 8.597015 -65.499775 -40.404686 36.526110 -165.382364 -79.437645 -172.741086 -9.126916 -19.122673 -11.966021 23.171059 3.225791 1.285499 56.605541 4.775675 7.329264 -54.672451 50.853873 -34.958527 4.230670 6.031365 -12.949179 
12.444064 14.930761 90.852036 -118.222268 1.853867 86.958427 14.669359 4.341407 -8.034903 -7.205076 -6.003503 20.054338 1.715748 9.052643 -21.235593 nan nan nan -14.789168 -13.941419 -5.408761 3.095958 -15.538245 13.893657 2.345389 -10.845862 -9.188634 nan nan nan -8.348587 4.678540 0.661356 9.659012 -7.037468 17.325697 3.008422 -0.303168 -9.118958 2.810914 -17.018128 13.879872 7.096392 -18.607080 9.071304 -18.737127 -8.422140 8.597836 -64.846648 -40.572488 36.299216 -165.506353 -79.266847 -172.984835 -9.515322 -18.968111 -12.044632 23.140910 3.164824 1.240342 56.471239 4.710099 7.251058 -54.398820 51.003577 -34.662466 4.813608 5.864407 -12.508183 
12.436038 14.939699 90.822762 -118.327205 2.026299 86.809668 14.961997 4.395644 -7.789473 -7.486003 -6.413240 19.910835 2.198981 9.508581 -20.967539 nan nan nan -14.626466 -13.845863 -5.257050 3.212993 -15.375144 13.799754 1.554054 -11.029533 -9.325340 nan nan nan -9.196527 6.478378 -0.015368 11.056231 -5.636651 20.501608 4.343494 -2.166858 -11.873532 3.039141 -18.081978 12.318161 5.763002 -18.876882 10.004779 -19.064147 -9.101334 8.943748 -66.099705 -41.066042 37.538415 -169.338696 -79.678189 -168.862877 -10.315901 -18.567936 -12.109304 21.774112 1.917608 -0.047475 56.551043 4.283341 8.107714 -54.466765 51.037536 -34.706576 4.638765 6.111130 -13.282457 
12.428074 14.939197 90.812614 -118.341052 1.970047 86.769342 14.887968 4.378498 -7.737336 -7.376774 -6.249489 19.860469 2.028086 9.334539 -21.024674 nan nan nan -14.716087 -13.885699 -5.299491 3.134772 -15.539087 13.948210 1.687020 -10.798396 -9.458973 nan nan nan -9.013765 6.011688 0.076230 10.756361 -6.006183 20.311767 3.995592 -1.671193 -11.641101 2.986076 -17.676537 12.791022 6.087477 -18.936597 9.563329 -18.922813 -8.512277 8.807844 -66.556294 -40.724482 37.615393 -169.338362 -79.715597 -169.012849 -10.760665 -18.871165 -11.920592 22.214419 2.119345 0.374850 56.424401 4.639230 8.097922 -54.474328 50.725151 -34.859241 4.768452 6.441798 -12.945195 
